PathFileType	4	(X/Y/Z)	C:\Git\research_data\torsion_deformities_healthy_kinematics\simulations\P01\post\Stand01\marker_experimental_HJC.trc
DataRate	CameraRate	NumFrames	NumMarkers	Units	OrigDataRate	OrigDataStartFrame	OrigNumFrames
150	150	2	231	mm	150	19	150
Frame#	Time	LFHD			LBHD			RFHD			RBHD			C7			T10			CLAV			STRN			RBAK			LSHO			LUPA			LELB			LFRA			LWRB			LWRA			LFIN			RSHO			RUPA			RELB			RFRA			RWRB			RWRA			RFIN			SACR			LASI			RASI			LT1			LT2			LT3			LS1			LS2			LS3			LHEE			LTOE			RT1			RT2			RT3			RS1			RS2			RS3			RHEE			RTOE			PELO			PELA			PELL			PELP			SACO			SACA			SACL			SACP			LFEO			LFEA			LFEL			LFEP			RFEO			RFEA			RFEL			RFEP			LTIO			LTIA			LTIL			LTIP			RTIO			RTIA			RTIL			RTIP			LFOO			LFOA			LFOL			LFOP			RFOO			RFOA			RFOL			RFOP			LTOO			LTOA			LTOL			LTOP			RTOO			RTOA			RTOL			RTOP			HEDO			HEDA			HEDL			HEDP			LCLO			LCLA			LCLL			LCLP			RCLO			RCLA			RCLL			RCLP			TRXO			TRXA			TRXL			TRXP			LHUO			LHUA			LHUL			LHUP			LRAO			LRAA			LRAL			LRAP			LHNO			LHNA			LHNL			LHNP			RHUO			RHUA			RHUL			RHUP			RRAO			RRAA			RRAL			RRAP			RHNO			RHNA			RHNL			RHNP			LPelvisAngles			RPelvisAngles			LFootProgressAngles			RFootProgressAngles			LHipAngles			RHipAngles			LKneeAngles			RKneeAngles			LAnkleAngles			RAnkleAngles			LFFootAngles			RFFootAngles			LAbsAnkleAngle			RAbsAnkleAngle			RNeckAngles			LNeckAngles			RSpineAngles			LSpineAngles			LShoulderAngles			LElbowAngles			LWristAngles			RShoulderAngles			RElbowAngles			RWristAngles			RThoraxAngles			LThoraxAngles			RHeadAngles			LHeadAngles			LHipPower			LKneePower			LAnklePower			RHipPower			RKneePower			RAnklePower			LWaistPower			RWaistPower			LNeckPower			RNeckPower			LShoulderPower			RShoulderPower			LElbowPower			RElbowPower			LWristPower			RWristPower			F_ForcePlate1			F_ForcePlate2			F_ForcePlate3			LGRF			RGRF			LHipForce			RHipForce			LKneeForce			RKneeForce			LAnkleForce			RAnkleForce			LWaistForce			RWaistForce			LNeckForce			RNeckForce			LShoulderForce			RShoulderForce			LElbowForce			RElbowForce			LWristForce			RWristForce			LNormalisedGRF			RNormalisedGRF			LGroundReactionForce			RGroundReactionForce			LHipMoment			RHipMoment			LKneeMoment			RKneeMoment			LAnkleMoment			RAnkleMoment			LWaistMoment			RWaistMoment			LNeckMoment			RNeckMoment			LShoulderMoment			RShoulderMoment			LElbowMoment			RElbowMoment			LWristMoment			RWristMoment			LKNE			RKNE			LANK			RANK			LKJC			RKJC			LAJC			RAJC			LTHI			RTHI			LTIB			RTIB			P_ForcePlate1			P_ForcePlate2			P_ForcePlate3			CentreOfMass			CentreOfMassFloor			funktRKJC			funktLKJC			funktRHIP			funktLHIP			LHJC			RHJC			LHF		
		X1	Y1	Z1	X2	Y2	Z2	X3	Y3	Z3	X4	Y4	Z4	X5	Y5	Z5	X6	Y6	Z6	X7	Y7	Z7	X8	Y8	Z8	X9	Y9	Z9	X10	Y10	Z10	X11	Y11	Z11	X12	Y12	Z12	X13	Y13	Z13	X14	Y14	Z14	X15	Y15	Z15	X16	Y16	Z16	X17	Y17	Z17	X18	Y18	Z18	X19	Y19	Z19	X20	Y20	Z20	X21	Y21	Z21	X22	Y22	Z22	X23	Y23	Z23	X24	Y24	Z24	X25	Y25	Z25	X26	Y26	Z26	X27	Y27	Z27	X28	Y28	Z28	X29	Y29	Z29	X30	Y30	Z30	X31	Y31	Z31	X32	Y32	Z32	X33	Y33	Z33	X34	Y34	Z34	X35	Y35	Z35	X36	Y36	Z36	X37	Y37	Z37	X38	Y38	Z38	X39	Y39	Z39	X40	Y40	Z40	X41	Y41	Z41	X42	Y42	Z42	X43	Y43	Z43	X44	Y44	Z44	X45	Y45	Z45	X46	Y46	Z46	X47	Y47	Z47	X48	Y48	Z48	X49	Y49	Z49	X50	Y50	Z50	X51	Y51	Z51	X52	Y52	Z52	X53	Y53	Z53	X54	Y54	Z54	X55	Y55	Z55	X56	Y56	Z56	X57	Y57	Z57	X58	Y58	Z58	X59	Y59	Z59	X60	Y60	Z60	X61	Y61	Z61	X62	Y62	Z62	X63	Y63	Z63	X64	Y64	Z64	X65	Y65	Z65	X66	Y66	Z66	X67	Y67	Z67	X68	Y68	Z68	X69	Y69	Z69	X70	Y70	Z70	X71	Y71	Z71	X72	Y72	Z72	X73	Y73	Z73	X74	Y74	Z74	X75	Y75	Z75	X76	Y76	Z76	X77	Y77	Z77	X78	Y78	Z78	X79	Y79	Z79	X80	Y80	Z80	X81	Y81	Z81	X82	Y82	Z82	X83	Y83	Z83	X84	Y84	Z84	X85	Y85	Z85	X86	Y86	Z86	X87	Y87	Z87	X88	Y88	Z88	X89	Y89	Z89	X90	Y90	Z90	X91	Y91	Z91	X92	Y92	Z92	X93	Y93	Z93	X94	Y94	Z94	X95	Y95	Z95	X96	Y96	Z96	X97	Y97	Z97	X98	Y98	Z98	X99	Y99	Z99	X100	Y100	Z100	X101	Y101	Z101	X102	Y102	Z102	X103	Y103	Z103	X104	Y104	Z104	X105	Y105	Z105	X106	Y106	Z106	X107	Y107	Z107	X108	Y108	Z108	X109	Y109	Z109	X110	Y110	Z110	X111	Y111	Z111	X112	Y112	Z112	X113	Y113	Z113	X114	Y114	Z114	X115	Y115	Z115	X116	Y116	Z116	X117	Y117	Z117	X118	Y118	Z118	X119	Y119	Z119	X120	Y120	Z120	X121	Y121	Z121	X122	Y122	Z122	X123	Y123	Z123	X124	Y124	Z124	X125	Y125	Z125	X126	Y126	Z126	X127	Y127	Z127	X128	Y128	Z128	X129	Y129	Z129	X130	Y130	Z130	X131	Y131	Z131	X132	Y132	Z132	X133	Y133	Z133	X134	Y134	Z134	X135	Y135	Z135	X136	Y136	Z136	X137	Y137	Z137	X138	Y138	Z138	X139	Y139	Z139	X140	Y140	Z140	X141	Y141	Z141	X142	Y142	Z142	X143	Y143	Z143	X144	Y144	Z144	X145	Y145	Z145	X146	Y146	Z146	X147	Y147	Z147	X148	Y148	Z148	X149	Y149	Z149	X150	Y150	Z150	X151	Y151	Z151	X152	Y152	Z152	X153	Y153	Z153	X154	Y154	Z154	X155	Y155	Z155	X156	Y156	Z156	X157	Y157	Z157	X158	Y158	Z158	X159	Y159	Z159	X160	Y160	Z160	X161	Y161	Z161	X162	Y162	Z162	X163	Y163	Z163	X164	Y164	Z164	X165	Y165	Z165	X166	Y166	Z166	X167	Y167	Z167	X168	Y168	Z168	X169	Y169	Z169	X170	Y170	Z170	X171	Y171	Z171	X172	Y172	Z172	X173	Y173	Z173	X174	Y174	Z174	X175	Y175	Z175	X176	Y176	Z176	X177	Y177	Z177	X178	Y178	Z178	X179	Y179	Z179	X180	Y180	Z180	X181	Y181	Z181	X182	Y182	Z182	X183	Y183	Z183	X184	Y184	Z184	X185	Y185	Z185	X186	Y186	Z186	X187	Y187	Z187	X188	Y188	Z188	X189	Y189	Z189	X190	Y190	Z190	X191	Y191	Z191	X192	Y192	Z192	X193	Y193	Z193	X194	Y194	Z194	X195	Y195	Z195	X196	Y196	Z196	X197	Y197	Z197	X198	Y198	Z198	X199	Y199	Z199	X200	Y200	Z200	X201	Y201	Z201	X202	Y202	Z202	X203	Y203	Z203	X204	Y204	Z204	X205	Y205	Z205	X206	Y206	Z206	X207	Y207	Z207	X208	Y208	Z208	X209	Y209	Z209	X210	Y210	Z210	X211	Y211	Z211	X212	Y212	Z212	X213	Y213	Z213	X214	Y214	Z214	X215	Y215	Z215	X216	Y216	Z216	X217	Y217	Z217	X218	Y218	Z218	X219	Y219	Z219	X220	Y220	Z220	X221	Y221	Z221	X222	Y222	Z222	X223	Y223	Z223	X224	Y224	Z224	X225	Y225	Z225	X226	Y226	Z226	X227	Y227	Z227	X228	Y228	Z228	X229	Y229	Z229	X230	Y230	Z230	X231	Y231	Z231	

19	0.120000	-334.903168	1545.869751	1295.632935	-332.481537	1521.543213	1156.363892	-461.496765	1543.435181	1302.226074	-483.439423	1518.676147	1176.434570	-400.150238	1406.655762	1145.549805	-392.900360	1226.312988	1082.675415	-407.053223	1339.012817	1262.824707	-408.267273	1302.659058	1283.415039	-507.346710	1268.264282	1072.355957	-254.076920	1380.013550	1179.765503	-145.789856	1189.460083	1150.688477	-88.530701	1113.862305	1171.340942	-42.361805	1070.579956	1192.752930	46.928085	939.794434	1269.369995	20.204300	947.912598	1333.265625	75.695862	899.088623	1351.138306	-554.516174	1368.335449	1171.224365	-622.527954	1282.371460	1151.687622	-694.398071	1093.571411	1140.535278	-818.233765	952.930054	1195.667969	-843.776428	910.718384	1213.622314	-843.821106	936.255249	1279.397949	-902.410156	884.629334	1288.145020	-393.668518	971.425781	1077.554199	-254.109909	934.836670	1264.218506	-540.196228	934.489746	1255.636230	-205.933533	643.941040	1234.802124	-190.934647	553.346924	1154.168945	-235.036575	567.617737	1289.768311	-202.768478	258.333008	1178.150635	-188.002533	179.381332	1086.285522	-227.464752	178.754684	1222.924438	-275.425476	39.256290	1091.336548	-226.264648	38.912903	1252.099976	-583.417908	661.168823	1194.739258	-555.093201	589.354553	1097.748413	-582.317200	572.552734	1237.893433	-577.073791	267.589661	1152.971436	-555.311707	202.572082	1052.887573	-571.194397	182.541840	1192.835205	-495.276031	41.109886	1085.099731	-539.697449	39.996399	1246.196655	-395.069336	848.926147	1194.933716	-395.509979	845.939758	1209.743042	-382.480133	848.941406	1195.311401	-395.965149	972.391846	1219.804688	-393.481049	959.549805	1136.516113	-393.664642	958.305481	1142.686768	-387.186432	959.557434	1136.704956	-393.928925	1021.282715	1148.951538	-281.481934	469.919708	1217.098145	-274.614502	472.839905	1254.668945	-244.139710	474.524628	1209.914551	-332.125305	849.065552	1196.885864	-498.385803	474.147461	1204.630981	-505.494629	476.063171	1241.603882	-461.584106	470.407593	1211.900635	-458.013153	848.786682	1192.981812	-266.284271	45.393124	1149.457153	-248.252228	40.701508	1182.953979	-231.361023	49.546108	1131.238892	-280.278107	436.293762	1211.740479	-505.419067	50.452824	1141.739258	-521.041931	45.388523	1177.604004	-469.204254	47.570446	1157.107544	-498.942902	440.587433	1199.649414	-226.997421	49.249264	1252.801636	-227.941040	62.559166	1253.705200	-214.243362	50.414959	1248.950073	-266.116882	55.148773	1125.048340	-539.344788	50.161423	1247.133789	-538.887573	63.339348	1248.348755	-526.562805	49.406738	1250.509277	-505.060028	60.723598	1119.669067	-214.153885	47.658905	1294.849487	-214.451858	51.862034	1295.134888	-210.126282	48.027012	1293.633179	-226.507477	49.522213	1254.506470	-550.610718	47.033878	1289.094971	-550.466309	51.195328	1289.478638	-546.574280	46.795532	1290.160889	-539.784180	50.369293	1248.842773	-409.463074	1443.579712	1125.018311	-393.149475	1484.600220	1346.527588	-184.334457	1448.630493	1107.502808	-417.597504	1665.631470	1084.496338	-257.731567	1333.231934	1177.097412	-179.628693	1318.648071	1325.824097	-244.620056	1501.067505	1186.669556	-406.595245	1340.362915	1255.971436	-546.814819	1322.046753	1168.569336	-631.859375	1299.804077	1309.667969	-519.574646	1158.321655	1159.178345	-406.595184	1340.362915	1255.971436	-406.595245	1340.362915	1255.971436	-417.549683	1308.071655	1419.892456	-573.603882	1337.980469	1244.341309	-402.019714	1176.093506	1223.917358	-120.566383	1095.442139	1169.494019	-207.858261	1053.305054	912.549194	-341.885010	964.688354	1266.125244	-257.731537	1333.231934	1177.097412	29.235914	938.470398	1300.190674	35.740387	791.492310	1116.208984	-160.613571	826.308350	1383.082031	-110.080231	1084.454102	1178.642822	94.943855	833.702881	1391.873169	206.872406	933.745239	1425.975586	177.732269	781.599670	1273.000122	29.235939	938.470398	1300.190674	-662.393921	1077.706665	1150.181396	-501.877685	1017.567078	940.380371	-847.528320	1178.105347	979.757935	-546.814758	1322.046753	1168.569336	-838.887024	918.838562	1248.318115	-779.768555	753.219910	1086.528442	-1002.178101	1007.391541	1098.002319	-674.748413	1066.585938	1157.050903	-936.107544	826.606690	1335.993774	-1059.596802	921.626953	1299.018921	-905.380493	916.662231	1464.801392	-838.887024	918.838562	1248.318115	-0.407524	1.670728	-11.389256	0.407524	-1.670728	-11.389256	-4.231196	-17.008249	-2.643967	-2.048519	-15.005795	-4.736814	7.616111	-12.155393	-14.217105	6.160963	-9.203324	-13.361663	-3.136411	-16.286139	-12.913331	-3.082729	-11.469893	-11.035759	0.645268	10.724748	-5.627172	0.305375	8.230315	-3.370033	0.000000	0.000000	0.000000	-0.000000	-0.000000	-0.000000	0.000000	0.000000	-9.248485	0.000000	0.000000	-8.682698	1.154345	-8.364992	21.348560	-1.154345	8.364992	21.348560	-1.178709	2.073252	0.271341	1.178709	-2.073252	0.271341	-29.128967	-29.464790	-6.154632	0.000000	-0.000000	-35.145798	10.929577	123.642364	-1.676880	-26.564610	-40.436230	-7.781913	0.000000	-0.000000	-34.436634	8.219969	115.666779	-7.063351	1.565975	-3.752762	-11.041400	-1.565975	3.752762	-11.041400	2.063909	4.144605	-10.342011	-2.063909	-4.144605	-10.342011	0.000000	0.000448	0.000000	-0.000000	-0.000253	-0.000000	0.000000	0.000017	0.000000	-0.000000	-0.000322	-0.000000	-0.000000	-0.000049	-0.000000	-0.000000	-0.000000	-0.000000	0.000000	0.000338	0.000000	0.000000	0.000338	0.000000	-0.000000	-0.001019	-0.000000	-0.000000	-0.001019	-0.000000	-0.000000	-0.000275	-0.000000	0.000000	0.000594	0.000000	0.000000	0.000020	0.000000	-0.000000	-0.000272	-0.000000	-0.000000	-0.000029	-0.000000	0.000000	0.000008	0.000000	-398.021027	1.304700	259.089996	-231.415008	1.697000	-251.317001	-396.987000	4.582600	-949.962036	0.000000	0.000000	0.000000	0.000000	0.000000	0.000000	-0.190364	1.563426	-0.120225	0.156420	1.569548	-0.079857	-0.062812	0.590608	0.073155	0.043716	0.591803	0.076892	-0.012404	-0.006263	0.141562	0.008108	-0.011346	0.141560	-0.006666	4.461973	0.901130	-0.006666	4.461973	0.901130	-0.129746	8.846382	1.743272	-0.129746	8.846382	1.743272	0.234001	0.424911	0.074938	-0.181468	0.442254	0.108740	0.103053	0.133875	0.134648	-0.079497	0.133350	0.149639	0.019869	0.040112	-0.038353	-0.033278	0.033803	-0.034729	0.000000	0.000000	0.000000	0.000000	0.000000	0.000000	0.000000	0.000000	0.000000	0.000000	0.000000	0.000000	-58.490150	-2.545433	16.083128	-46.019634	-1.669037	6.786581	-14.972731	0.791375	9.996723	-10.343107	0.539415	10.887258	-1.302054	0.723126	7.595015	-0.935834	0.508569	7.569897	-14.464980	-2.812346	-66.403374	14.464980	2.812346	-66.403374	-78.807510	-29.431765	933.790955	78.807510	29.431765	933.790955	-57.224628	-9.874575	36.242397	-43.885963	-7.697280	45.430935	-16.508141	-0.454347	22.142624	-12.861346	-0.514410	25.251778	-1.159622	0.000000	-2.243263	-2.026366	-0.000000	-2.107998	-226.750671	480.051514	1206.306519	-552.330933	482.285919	1193.837158	-230.456573	46.397377	1130.311035	-541.737671	46.996876	1125.430664	-281.481934	469.919708	1217.098145	-498.385803	474.147430	1204.630981	-266.434753	49.596359	1150.126831	-505.349457	54.647823	1142.361938	-194.777023	673.307495	1185.441284	-588.604675	672.686584	1176.997192	-168.511459	253.302429	1125.944092	-610.825440	254.167282	1124.589478	-398.021027	1.304700	259.089996	-231.415008	1.697000	-251.317001	-396.987000	4.582600	-949.962036	-397.951691	934.467957	1233.966675	-397.951691	0.000000	1233.966675	0.000000	0.000000	0.000000	0.000000	0.000000	0.000000	0.000000	0.000000	0.000000	0.000000	0.000000	0.000000	-293.169002	850.710069	1190.411964	-496.579396	850.463403	1184.309875	-0.190364	1.563426	-0.120225	
20	0.126667	-334.888092	1545.861694	1295.697021	-332.484314	1521.542236	1156.427490	-461.483795	1543.426758	1302.310791	-483.439850	1518.672607	1176.517456	-400.150452	1406.651123	1145.620605	-392.904175	1226.311157	1082.737793	-407.042786	1339.003174	1262.895142	-408.254944	1302.648438	1283.481567	-507.353912	1268.259277	1072.437256	-254.074387	1380.006348	1179.817139	-145.795120	1189.449707	1150.727051	-88.534668	1113.850464	1171.372314	-42.365604	1070.566772	1192.779663	46.927185	939.778137	1269.388672	20.207272	947.894287	1333.286377	75.692490	899.064453	1351.155151	-554.513245	1368.328735	1171.303711	-622.525452	1282.365723	1151.765625	-694.396301	1093.570068	1140.607056	-818.243042	952.941711	1195.711304	-843.788818	910.728516	1213.666016	-843.834351	936.262024	1279.436401	-902.429627	884.642090	1288.179199	-393.669311	971.432617	1077.625977	-254.118469	934.820862	1264.290039	-540.209168	934.484924	1255.691772	-205.948166	643.935181	1234.861328	-190.940521	553.348267	1154.208252	-235.052017	567.604858	1289.807373	-202.772888	258.332916	1178.163818	-188.004898	179.388061	1086.294434	-227.470184	178.750839	1222.932617	-275.426788	39.258812	1091.333618	-226.265686	38.912689	1252.098633	-583.426697	661.167358	1194.768799	-555.092957	589.361328	1097.775269	-582.328674	572.546570	1237.917725	-577.075195	267.590668	1152.975830	-555.308533	202.578567	1052.893921	-571.196167	182.540390	1192.838989	-495.274963	41.113995	1085.099609	-539.701416	39.993706	1246.197144	-395.079529	848.922241	1194.988770	-395.521149	845.934387	1209.797852	-382.490326	848.937012	1195.367188	-395.972321	972.385559	1219.871948	-393.484100	959.551697	1136.582397	-393.668091	958.306763	1142.752808	-387.189484	959.559082	1136.771606	-393.930512	1021.283325	1149.024048	-281.488586	469.915070	1217.111328	-274.625153	472.830353	1254.682739	-244.146057	474.521545	1209.932251	-332.135803	849.059448	1196.944336	-498.393555	474.146210	1204.655762	-505.505554	476.059570	1241.628052	-461.592560	470.406250	1211.928345	-458.023407	848.785095	1193.033325	-266.287994	45.394684	1149.456909	-248.256622	40.702065	1182.953613	-231.364761	49.548401	1131.239502	-280.284515	436.289703	1211.752563	-505.417236	50.454838	1141.745483	-521.041321	45.388714	1177.609497	-469.202972	47.572422	1157.114990	-498.949890	440.586395	1199.672729	-226.998596	49.249023	1252.800537	-227.942352	62.558895	1253.704468	-214.244644	50.414967	1248.948608	-266.121613	55.150978	1125.048462	-539.348938	50.158691	1247.134766	-538.892029	63.336571	1248.350342	-526.567200	49.404068	1250.511108	-505.055420	60.726944	1119.672852	-214.153992	47.657906	1294.848145	-214.452011	51.861023	1295.133545	-210.126434	48.026085	1293.631714	-226.508789	49.521381	1254.505371	-550.617615	47.029121	1289.095093	-550.473328	51.190552	1289.478882	-546.581299	46.790806	1290.161255	-539.788208	50.366127	1248.843872	-409.468720	1443.579590	1125.089233	-393.129120	1484.589722	1346.598511	-184.342285	1448.633545	1107.547119	-417.610291	1665.633301	1084.578857	-257.729889	1333.224854	1177.147095	-179.606873	1318.632324	1325.864990	-244.614960	1501.062256	1186.726318	-406.585327	1340.353638	1256.041870	-546.811523	1322.040283	1168.645752	-631.848755	1299.788940	1309.749878	-519.569702	1158.313965	1159.244385	-406.585297	1340.353638	1256.041870	-406.585388	1340.353638	1256.041870	-417.525787	1308.053223	1419.964355	-573.597229	1337.970337	1244.425659	-402.011108	1176.083740	1223.978271	-120.570961	1095.431152	1169.527466	-207.882858	1053.302979	912.587158	-341.886444	964.679993	1266.171631	-257.729950	1333.224854	1177.147095	29.236820	938.453186	1300.210449	35.725212	791.478760	1116.225220	-160.609512	826.293762	1383.112549	-110.084396	1084.442627	1178.675293	94.933838	833.674927	1391.885254	206.873352	933.701355	1425.989502	177.712433	781.568481	1273.009399	29.236847	938.453186	1300.210449	-662.393982	1077.705078	1150.258667	-501.839661	1017.540283	940.497925	-847.488769	1178.092285	979.790405	-546.811523	1322.040283	1168.645752	-838.900330	918.846558	1248.359375	-779.746033	753.227234	1086.597778	-1002.151550	1007.386841	1098.008545	-674.749390	1066.584961	1157.125732	-936.136108	826.621094	1336.022461	-1059.611938	921.654663	1299.042847	-905.410217	916.666809	1464.835571	-838.900391	918.846435	1248.359375	-0.406160	1.674233	-11.394938	0.406160	-1.674233	-11.394938	-4.232025	-17.009714	-2.645023	-2.047402	-15.009552	-4.739663	7.618880	-12.152447	-14.215483	6.158438	-9.205187	-13.363528	-3.138964	-16.291441	-12.908205	-3.083032	-11.467106	-11.034662	0.645091	10.722291	-5.627720	0.305262	8.228583	-3.369904	-0.000000	-0.000000	-0.000000	-0.000000	-0.000000	-0.000000	0.000000	0.000000	-9.248867	0.000000	0.000000	-8.682986	1.154654	-8.366937	21.348860	-1.154654	8.366937	21.348860	-1.179761	2.064807	0.273829	1.179761	-2.064807	0.273829	-29.127287	-29.464737	-6.156634	-0.000000	0.000000	-35.146194	10.935452	123.642021	-1.675093	-26.565826	-40.454975	-7.782740	0.000000	0.000000	-34.432621	8.221628	115.678215	-7.065079	1.565528	-3.747887	-11.044632	-1.565528	3.747887	-11.044632	2.065713	4.151219	-10.339051	-2.065713	-4.151219	-10.339051	0.000000	0.000442	0.000000	-0.000000	-0.000251	-0.000000	0.000000	0.000017	0.000000	-0.000000	-0.000317	-0.000000	-0.000000	-0.000049	-0.000000	0.000000	0.000000	0.000000	0.000000	0.000343	0.000000	0.000000	0.000343	0.000000	-0.000000	-0.000883	-0.000000	-0.000000	-0.000883	-0.000000	-0.000000	-0.000271	-0.000000	0.000000	0.000578	0.000000	0.000000	0.000019	0.000000	-0.000000	-0.000260	-0.000000	-0.000000	-0.000029	-0.000000	0.000000	0.000008	0.000000	-398.021027	1.304700	259.089996	-231.415008	1.697000	-251.317001	-396.987000	4.582600	-949.962036	0.000000	0.000000	0.000000	0.000000	0.000000	0.000000	-0.190426	1.563431	-0.120026	0.156427	1.569551	-0.079761	-0.062822	0.590604	0.073170	0.043717	0.591800	0.076918	-0.012407	-0.006265	0.141561	0.008107	-0.011352	0.141560	-0.006491	4.461884	0.901570	-0.006491	4.461884	0.901570	-0.129790	8.846286	1.743756	-0.129790	8.846286	1.743756	0.233996	0.424917	0.074922	-0.181450	0.442250	0.108786	0.103050	0.133880	0.134644	-0.079489	0.133348	0.149645	0.019871	0.040117	-0.038347	-0.033274	0.033801	-0.034734	0.000000	0.000000	0.000000	0.000000	0.000000	0.000000	0.000000	0.000000	0.000000	0.000000	0.000000	0.000000	-58.505436	-2.545219	16.028179	-46.020790	-1.669207	6.757281	-14.975385	0.791543	10.000265	-10.343293	0.539410	10.893532	-1.302087	0.723287	7.594973	-0.935799	0.508572	7.569568	-14.455756	-2.814663	-66.524788	14.455756	2.814663	-66.524788	-78.737747	-29.423723	933.561157	78.737747	29.423723	933.561157	-57.222996	-9.874379	36.238903	-43.881378	-7.695540	45.438919	-16.507427	-0.454498	22.141760	-12.859396	-0.514513	25.251772	-1.159714	-0.000000	-2.242912	-2.026126	-0.000000	-2.108302	-226.756790	480.051392	1206.326660	-552.337830	482.284851	1193.857788	-230.459930	46.400043	1130.311401	-541.734985	46.998489	1125.435425	-281.488586	469.915100	1217.111328	-498.393524	474.146210	1204.655762	-266.438507	49.597855	1150.126709	-505.347656	54.649803	1142.368408	-194.784546	673.306580	1185.490845	-588.611450	672.685547	1177.026733	-168.516632	253.303345	1125.952759	-610.826233	254.167908	1124.600708	-398.021027	1.304700	259.089996	-231.415008	1.697000	-251.317001	-396.987000	4.582600	-949.962036	-397.950745	934.461853	1234.015259	-397.950745	0.000000	1234.015259	0.000000	0.000000	0.000000	0.000000	0.000000	0.000000	0.000000	0.000000	0.000000	0.000000	0.000000	0.000000	-293.177307	850.701359	1190.473705	-496.590569	850.462505	1184.360253	-0.190426	1.563431	-0.120026	
